<svg width="284" height="81" viewBox="0 0 284 81" fill="none" xmlns="http://www.w3.org/2000/svg">
    <path fill-rule="evenodd" clip-rule="evenodd" d="M96.0177 47.9145L97.2126 41.223C97.3363 40.4795 97.2126 39.8187 96.8006 39.2404C96.3885 38.6621 95.8941 38.373 95.2348 38.373C94.6579 38.373 94.1222 38.6208 93.6277 39.1578C93.1333 39.6534 92.6388 40.5209 92.1855 41.6774C91.8971 42.4209 91.7323 42.9579 91.6499 43.2883C91.5675 43.6188 91.4438 44.197 91.279 44.9818C90.9082 47.0471 90.9082 48.658 91.3202 49.7733C91.6499 50.7233 92.2267 51.219 93.0097 51.219C93.5453 51.219 94.0398 51.0124 94.5343 50.5581C95.0287 50.145 95.3996 49.5667 95.688 48.8646C95.8116 48.658 95.8941 48.3276 96.0177 47.9145ZM102.981 56.8365H95.0699L95.688 53.4908C95.0699 54.7712 94.081 55.8039 92.7212 56.5887C91.3614 57.3735 89.9604 57.7865 88.477 57.7865C86.1695 57.7865 84.3977 56.8778 83.2027 55.0604C81.8017 52.8712 81.472 49.7733 82.2138 45.684C82.3786 44.7753 82.5846 43.8666 82.873 42.9166C83.1615 41.9665 83.4087 41.1404 83.656 40.4795C84.7685 37.5882 86.1695 35.399 87.9826 33.9946C89.466 32.7967 91.1554 32.2185 93.0097 32.2185C94.2458 32.2185 95.3584 32.4663 96.3061 32.962C97.295 33.4576 97.9543 34.0772 98.4076 34.862L100.303 24.4117H108.874L102.981 56.8365ZM71.7475 44.4862C72.0771 42.71 72.0771 41.1404 71.7887 39.7774C71.4591 38.2491 70.841 37.4642 69.8932 37.4642C69.2339 37.4642 68.5747 37.836 67.9566 38.5382C67.3385 39.2404 66.8028 40.1904 66.3908 41.3883C65.9787 42.4622 65.7315 43.4535 65.5254 44.4449C65.1546 46.4275 65.1134 48.1211 65.4018 49.4841C65.6903 50.8885 66.3083 51.5494 67.3385 51.5494C68.039 51.5494 68.6983 51.219 69.2752 50.5581C69.852 49.8972 70.3877 48.9885 70.7998 47.7906C71.1706 46.9645 71.5003 45.8493 71.7475 44.4862ZM81.1012 44.4862C80.9364 45.5188 80.6479 46.5101 80.2359 47.5428C79.0409 50.7233 77.1042 53.2016 74.3435 55.0191C71.8299 56.6713 69.1515 57.4974 66.2259 57.4974C62.8471 57.4974 60.2099 56.4235 58.2732 54.2343C56.0893 51.7972 55.3888 48.5341 56.1305 44.4449C56.2954 43.4122 56.5838 42.4209 56.9958 41.3883C58.1908 38.2491 60.1687 35.7707 62.9295 33.9533C65.4842 32.3011 68.245 31.475 71.1706 31.475C74.5083 31.475 77.1454 32.5902 79.0409 34.8207C81.1424 37.299 81.8429 40.5209 81.1012 44.4862ZM45.4995 44.4862C45.8291 42.71 45.8291 41.1404 45.5407 39.7774C45.211 38.2491 44.5929 37.4642 43.6452 37.4642C42.9859 37.4642 42.3266 37.836 41.7085 38.5382C41.0904 39.2404 40.5548 40.1904 40.1427 41.3883C39.7307 42.4622 39.4422 43.4535 39.2774 44.4449C38.9065 46.4275 38.8653 48.1211 39.1538 49.4841C39.4422 50.8885 40.0603 51.5494 41.0904 51.5494C41.7909 51.5494 42.4502 51.219 43.0271 50.5581C43.604 49.8972 44.1397 48.9885 44.5517 47.7906C44.9226 46.9645 45.2522 45.8493 45.4995 44.4862ZM54.8944 44.4862C54.7295 45.5188 54.4411 46.5101 54.029 47.5428C52.8341 50.7233 50.8974 53.2016 48.1366 55.0191C45.6231 56.6713 42.9447 57.4974 40.0191 57.4974C36.6402 57.4974 34.0031 56.4235 32.0664 54.2343C29.8825 51.7972 29.182 48.5341 29.9237 44.4449C30.0885 43.4122 30.377 42.4209 30.789 41.3883C31.984 38.2491 33.9619 35.7707 36.6814 33.9533C39.2362 32.3011 41.997 31.475 44.9226 31.475C48.2602 31.475 50.8974 32.5902 52.7929 34.8207C54.8944 37.299 55.5949 40.5209 54.8944 44.4862ZM25.6795 56.8365H20.776L20.7348 53.4908C19.8695 54.7299 18.5509 55.7213 16.8203 56.5061C15.0896 57.2909 13.2354 57.6626 11.2987 57.6626C7.79622 57.6626 5.07665 56.3821 3.18118 53.8625C0.873664 50.8059 0.255578 46.3449 1.32693 40.4382C1.61537 38.8273 2.06863 37.2164 2.64551 35.6055C4.17012 31.5576 6.51885 28.4184 9.65048 26.2292C12.5349 24.2052 15.5841 23.2139 18.8394 23.2139C22.177 23.2139 24.8966 24.2052 26.9569 26.2292C29.182 28.377 30.0885 31.2684 29.6353 34.862L20.5288 35.6468C20.776 34.2424 20.57 33.0446 19.9519 32.0945C19.3338 31.1032 18.4685 30.6488 17.3972 30.6488C16.4494 30.6488 15.5429 31.0206 14.7188 31.8054C13.7711 32.7141 12.9469 34.0772 12.2464 35.9359C11.7932 37.1751 11.3811 38.7034 11.0515 40.5209C10.557 43.7014 10.7218 46.1384 11.5047 47.8319C12.164 49.2363 13.1942 49.9385 14.554 49.9385C15.4605 49.9385 16.2846 49.6081 17.0675 48.9885C17.8504 48.3689 18.4273 47.5015 18.8394 46.4275C19.0042 45.9319 19.1278 45.6014 19.169 45.3123H14.3067L15.5429 38.2077H28.976L25.6795 56.8365Z" fill="#26A18E"/>
    <path fill-rule="evenodd" clip-rule="evenodd" d="M124.355 7.18715C121.1 10.0785 120.111 10.9459 118.174 13.5482C118.215 28.0877 123.16 40.1902 131.525 50.5579C130.659 52.8297 123.284 67.7822 121.553 61.1321C121.223 58.5298 121.429 55.7624 122.006 52.2514C122.171 49.4013 120.028 46.7165 122.254 44.1968L122.13 41.4707C121.512 43.2881 121.059 46.2208 120.646 49.8144C120.523 51.0535 120.482 51.797 120.605 54.1928C120.77 56.9189 120.111 59.5212 119.699 62.206C118.257 72.0367 115.249 74.5564 113.023 80.7522L113.229 81L113.971 80.7109C119.658 74.8868 126.91 63.0734 134.203 53.0775C141.043 57.0841 147.636 60.8016 154.312 63.3213C160.163 65.5931 166.55 67.1627 170.794 66.667C171.124 66.5018 171 66.254 171.082 66.0061C153.034 60.0168 146.029 53.0775 139.107 46.0969C150.85 29.9878 160.451 17.5961 164.283 14.9939C167.539 12.3916 170.67 10.0372 171.165 8.09587C172.277 4.62621 172.401 2.02397 171.906 0C170.547 0.206527 168.981 1.28047 167.291 3.26313C158.556 16.6461 147.43 30.4008 137.211 44.0316C134.945 43.2881 132.308 40.2728 130.412 34.2422C128.517 28.2529 125.88 18.6701 125.014 7.43498C124.973 7.06323 124.561 6.89801 124.355 7.18715Z" fill="#26A18E"/>
    <path d="M180.185 25.5009H184.906L186.689 46.7946L195.786 25.5009H200.831L187.378 55H183.427L180.185 25.5009ZM177.471 25.5009H182.333L179.537 47.22L178.159 55H172.385L177.471 25.5009ZM198.501 25.5009H203.384L198.278 55H192.483L193.942 46.6933L198.501 25.5009ZM203.789 44.7888L203.971 43.33C204.12 41.9523 204.437 40.6219 204.923 39.3387C205.423 38.0556 206.085 36.9007 206.909 35.8742C207.746 34.8477 208.753 34.0508 209.928 33.4835C211.116 32.9027 212.48 32.6326 214.02 32.6731C215.533 32.7001 216.776 33.0243 217.748 33.6456C218.734 34.2669 219.504 35.0908 220.058 36.1173C220.612 37.1304 220.97 38.2649 221.132 39.5211C221.307 40.7637 221.327 42.0266 221.192 43.3098L221.03 44.7685C220.855 46.1597 220.524 47.4969 220.038 48.7801C219.551 50.0632 218.889 51.2113 218.052 52.2243C217.228 53.2373 216.222 54.0343 215.033 54.6151C213.858 55.1823 212.501 55.4457 210.961 55.4052C209.462 55.3782 208.219 55.054 207.233 54.4327C206.261 53.8114 205.497 52.9942 204.944 51.9812C204.39 50.9682 204.025 49.8404 203.85 48.5977C203.674 47.3416 203.654 46.0719 203.789 44.7888ZM209.543 43.3098L209.381 44.8293C209.34 45.2615 209.3 45.8018 209.259 46.4501C209.219 47.085 209.246 47.7265 209.34 48.3749C209.435 49.0232 209.644 49.5702 209.968 50.016C210.292 50.4482 210.792 50.6778 211.467 50.7048C212.224 50.7588 212.852 50.59 213.352 50.1983C213.865 49.7931 214.263 49.2731 214.547 48.6382C214.831 48.0034 215.047 47.3416 215.195 46.6527C215.344 45.9504 215.452 45.3156 215.52 44.7483L215.661 43.2693C215.688 42.8505 215.715 42.317 215.742 41.6687C215.783 41.0068 215.756 40.3585 215.661 39.7237C215.567 39.0754 215.351 38.5283 215.013 38.0826C214.689 37.6369 214.196 37.3938 213.534 37.3532C212.791 37.3127 212.177 37.4951 211.69 37.9003C211.218 38.3055 210.833 38.8255 210.535 39.4603C210.238 40.0816 210.015 40.7435 209.867 41.4458C209.718 42.1482 209.61 42.7695 209.543 43.3098ZM228.04 23.8801H233.571L229.013 50.178L227.797 55H222.631L228.04 23.8801ZM241.21 43.2085L241.048 44.6672C240.885 45.8693 240.642 47.112 240.318 48.3951C240.008 49.6783 239.542 50.8601 238.92 51.9407C238.312 53.0212 237.509 53.8857 236.509 54.534C235.51 55.1823 234.26 55.4795 232.761 55.4255C231.545 55.3849 230.566 55.0068 229.823 54.2909C229.094 53.575 228.554 52.6836 228.203 51.6165C227.865 50.536 227.649 49.4149 227.554 48.2533C227.46 47.0917 227.446 46.0382 227.514 45.0927L227.777 42.9856C227.953 41.9591 228.23 40.8448 228.608 39.6427C228.986 38.4405 229.486 37.306 230.107 36.2389C230.728 35.1584 231.505 34.2804 232.437 33.6051C233.369 32.9297 234.463 32.6056 235.719 32.6326C237.164 32.6596 238.285 33.0175 239.082 33.7064C239.879 34.3817 240.447 35.2529 240.784 36.32C241.135 37.387 241.318 38.5283 241.331 39.744C241.358 40.9596 241.318 42.1144 241.21 43.2085ZM235.516 44.7483L235.679 43.2693C235.706 42.81 235.753 42.2495 235.82 41.5876C235.901 40.9258 235.908 40.2775 235.841 39.6427C235.787 39.0078 235.598 38.4811 235.273 38.0623C234.963 37.6301 234.449 37.4073 233.734 37.3938C233.072 37.3532 232.504 37.4748 232.032 37.7584C231.572 38.0421 231.188 38.427 230.877 38.9133C230.566 39.386 230.316 39.906 230.127 40.4733C229.952 41.0271 229.823 41.5674 229.742 42.0942L229.216 45.9639C229.161 46.6257 229.155 47.3146 229.195 48.0304C229.249 48.7463 229.459 49.3609 229.823 49.8741C230.188 50.3739 230.789 50.6508 231.627 50.7048C232.437 50.7453 233.085 50.5832 233.571 50.2186C234.071 49.8404 234.443 49.3474 234.686 48.7396C234.942 48.1182 235.125 47.4564 235.233 46.754C235.354 46.0382 235.449 45.3696 235.516 44.7483ZM252.191 33.0783L248.362 55H242.83L246.639 33.0783H252.191ZM247.369 27.5067C247.355 26.6288 247.632 25.8859 248.199 25.2781C248.767 24.6702 249.496 24.3596 250.388 24.3461C251.252 24.3326 251.968 24.6027 252.535 25.1565C253.102 25.7103 253.379 26.4261 253.366 27.3041C253.393 28.1685 253.123 28.9047 252.555 29.5125C252.002 30.1203 251.272 30.4309 250.367 30.4445C249.516 30.4715 248.807 30.2081 248.24 29.6543C247.673 29.087 247.382 28.3711 247.369 27.5067ZM263.922 23.8801L258.492 55H252.961L258.35 23.8801H263.922ZM271.722 55.4052C270.263 55.3782 269.014 55.0945 267.974 54.5543C266.934 54.014 266.103 53.2779 265.482 52.3459C264.86 51.4004 264.435 50.3334 264.205 49.1448C263.976 47.9426 263.928 46.6595 264.063 45.2953L264.266 43.4921C264.455 42.0874 264.786 40.73 265.259 39.4198C265.731 38.1096 266.366 36.9413 267.163 35.9147C267.974 34.8747 268.966 34.0643 270.141 33.4835C271.317 32.9027 272.694 32.6258 274.275 32.6528C275.787 32.6933 277.01 33.031 277.942 33.6658C278.887 34.2872 279.596 35.1111 280.069 36.1376C280.555 37.1641 280.852 38.3055 280.96 39.5616C281.069 40.8042 281.042 42.0604 280.879 43.33L280.515 45.9234H266.231L266.94 41.9321L275.591 41.9523L275.693 41.385C275.787 40.8178 275.821 40.2302 275.794 39.6224C275.767 39.0011 275.605 38.4811 275.308 38.0623C275.011 37.6301 274.497 37.3938 273.768 37.3532C272.971 37.3127 272.323 37.4951 271.823 37.9003C271.337 38.292 270.959 38.812 270.688 39.4603C270.418 40.1086 270.222 40.7907 270.101 41.5066C269.993 42.209 269.905 42.8708 269.838 43.4921L269.615 45.3156C269.547 45.9234 269.52 46.5379 269.534 47.1592C269.547 47.7671 269.628 48.3343 269.777 48.8611C269.939 49.3879 270.222 49.8201 270.628 50.1578C271.046 50.4954 271.641 50.671 272.411 50.6845C273.356 50.7116 274.227 50.536 275.024 50.1578C275.835 49.7796 276.591 49.2933 277.293 48.699L279.178 52.1636C278.61 52.9199 277.921 53.548 277.111 54.0478C276.301 54.534 275.423 54.8852 274.477 55.1013C273.545 55.3174 272.627 55.4187 271.722 55.4052Z" fill="#26A18E"/>
    </svg>